<svg xmlns="http://www.w3.org/2000/svg" width="34" height="34" viewBox="0 0 34 34">
    <g fill="#FFF" fill-rule="evenodd">
        <path d="M7 13.05L17 5l10 8.05V25.7c0 1.27-.995 2.3-2.222 2.3H9.222C7.995 28 7 26.97 7 25.7V13.05zm1.5.6V25.1c0 1.05.895 1.4 2 1.4h13c1.105 0 2-.35 2-1.4V13.65L17 7l-8.5 6.65z"/>
        <path d="M17.387 17.963V12.36l1.286.895v.006L21 14.888l-.643 1.016-1.684-1.184v5.115c.003.044.004.088.004.133 0 1.32-1.27 2.391-2.838 2.391S13 21.29 13 19.968c0-1.32 1.27-2.391 2.839-2.391.571 0 1.103.142 1.548.386z"/>
    </g>
</svg>
