<svg xmlns="http://www.w3.org/2000/svg" width="32" height="32" viewBox="0 0 32 32">
    <path fill="#FFF" fill-rule="nonzero" d="M17.051 23.59a38.694 38.694 0 0 0 3.97-2.977C24.47 17.643 26.5 14.655 26.5 12c0-3.11-1.92-4.5-4.5-4.5-1.724 0-3.523 1.344-4.745 3.21L16 12.628l-1.255-1.918C13.523 8.844 11.724 7.5 10 7.5c-2.58 0-4.5 1.39-4.5 4.5 0 2.655 2.03 5.644 5.479 8.613a38.694 38.694 0 0 0 3.97 2.977c.374.246.726.47 1.051.668.325-.199.677-.422 1.051-.668zM15.403 9.067c.225.28.424.558.597.822.173-.264.372-.541.597-.822.073-.08.194-.223.364-.43C18.164 7.287 19.924 6 22 6c2.182 0 6 1.111 6 6 0 7.333-12 14-12 14S4 19.333 4 12c0-4.889 3.818-6 6-6 2.076 0 3.836 1.287 5.039 2.637.14.163.261.307.364.43z"/>
</svg>
