<svg xmlns="http://www.w3.org/2000/svg" xmlns:xlink="http://www.w3.org/1999/xlink" width="55" height="55" viewBox="0 0 55 55">
    <defs>
        <linearGradient id="b" x1="50.107%" x2="50.107%" y1="2.721%" y2="98.004%">
            <stop offset="0%" stop-color="#F80"/>
            <stop offset="100%" stop-color="#F30"/>
        </linearGradient>
        <circle id="a" cx="27.5" cy="27.5" r="27.5"/>
        <circle id="c" cx="27.5" cy="27.5" r="27.5"/>
    </defs>
    <g fill="none" fill-rule="evenodd">
        <use fill="url(#b)" fill-rule="nonzero" xlink:href="#a"/>
        <mask id="d" fill="#fff">
            <use xlink:href="#c"/>
        </mask>
        <use fill="#F7702A" fill-rule="nonzero" xlink:href="#c"/>
        <g fill="#FFF" fill-rule="nonzero" mask="url(#d)">
            <path d="M15.695 34.876a.488.488 0 0 1-.104-.29c0-.108-.06-1.039-.134-2.078l-.134-1.895.15-3.345c.147-3.408.162-3.53.414-3.53.045 0 .134.03.193.092.09.076.134.504.282 3.376l.178 3.3-.178 2.154c-.104 1.191-.208 2.2-.252 2.245-.104.123-.282.108-.415-.015v-.014zm1.511-.045c-.074-.107-.133-.749-.237-2.292-.118-1.833-.133-2.353-.074-3.727l.134-3.836c.045-1.237.09-2.322.104-2.444.06-.397.504-.458.593-.076.015.076.104 1.925.194 4.094l.163 3.957-.163 2.048c-.058.708-.113 1.416-.164 2.124 0 .121-.193.29-.326.29-.074 0-.163-.062-.222-.153v.015h-.002zm1.543.03c-.104-.107-.134-.275-.163-1.069-.03-.52-.075-1.298-.104-1.726-.09-1.084-.075-2.49.03-5.837.059-1.588.103-3.192.103-3.59.015-.81.075-1.053.283-1.115.252-.061.444.122.444.444 0 .153.074 2.138.149 4.4l.148 4.11-.148 2.062c-.075 1.13-.149 2.093-.149 2.14 0 .12-.193.29-.341.29-.074 0-.178-.062-.252-.122v.014zm1.542 0c-.074-.091-.119-.275-.149-.565-.223-3.483-.223-3.728-.118-7.364.133-5.01.163-5.485.281-5.607.119-.122.445-.122.549 0 .06.062.104.947.178 2.934.178 5.545.193 6.431.074 8.25-.134 2.062-.148 2.245-.282 2.367-.133.137-.37.123-.519-.03l-.014.016zm1.542-.015a.605.605 0 0 1-.134-.351c0-.108-.045-1.024-.104-2.033-.104-1.695-.104-2.17 0-6.279.118-4.766.118-4.69.46-4.766.296-.061.49.198.49.672 0 .214.029 1.329.059 2.46.03 1.13.074 2.856.104 3.835.015.963.045 1.803.06 1.849.015.046-.03 1.008-.105 2.138-.05.734-.094 1.467-.133 2.201 0 .183-.237.428-.445.428a.405.405 0 0 1-.281-.153h.029zm1.586.016c-.134-.138-.149-.306-.282-2.75-.074-1.421-.06-2.918.074-7.762.075-2.596.075-2.642.475-2.642.134 0 .267.046.341.137.134.138.134.245.193 2.475.015.702.074 2.414.104 3.789.06 2.245.06 2.72-.06 4.568-.118 1.986-.133 2.063-.281 2.185-.194.152-.43.152-.594 0h.03zm1.571 0c-.089-.092-.133-.26-.163-.566-.104-1.176-.178-4.094-.148-5.82.015-1.07.06-2.705.074-3.668.074-3.865.104-4.475.237-4.613.163-.168.49-.168.638 0 .163.168.178.657.326 8.113.044 2.246-.104 6.187-.252 6.462-.134.26-.52.305-.727.092h.015zm1.617-.016a.573.573 0 0 1-.208-.351 97.175 97.175 0 0 1-.133-2.216c-.074-1.573-.09-2.52-.045-4.446.03-1.344.075-3.574.104-4.95.045-3.147.075-3.452.252-3.636.193-.183.475-.168.682.03.15.154.164.214.179.994 0 .458.015.916.029 1.008.014.091.03 1.39.06 2.886.03 1.497.06 2.735.074 2.751.074.122.015 4.553-.074 5.928-.041.56-.076 1.12-.104 1.68 0 .168-.297.458-.49.458a.584.584 0 0 1-.326-.136zm1.437-.03l-.163-.169V18.851l.178-.138c.207-.168.993-.428 1.78-.596.845-.168 2.223-.153 3.098.03 3.498.75 5.99 3.515 6.553 7.273l.044.244.58-.168c.488-.138.666-.168 1.303-.138.905.046.949.046 1.542.275 2.61 1.023 3.795 4.125 2.535 6.692-.579 1.191-1.409 1.94-2.67 2.414l-.473.183-7.057.016-7.057.015-.193-.137zm-13.906-.062c-.03-.076-.119-1.085-.208-2.23-.148-2.017-.148-2.11-.044-3.392.06-.718.119-1.604.148-1.955.045-.642.15-.948.312-.948.208 0 .267.244.445 2.185l.178 1.986-.178 2.11c-.089 1.16-.193 2.169-.222 2.26-.03.107-.104.153-.223.153-.118 0-.178-.046-.223-.153l.015-.016zm-1.482.031c-.015-.03-.119-1.008-.208-2.17l-.178-2.108.178-2.185c.09-1.207.208-2.231.238-2.276.089-.108.222-.108.311 0 .045.046.163 1.054.268 2.261l.192 2.17-.192 2.108c-.105 1.161-.208 2.14-.223 2.185-.03.092-.341.123-.386.03v-.015zm-1.468-.168c-.03-.045-.134-.977-.223-2.078l-.178-2.001.163-1.895c.09-1.038.178-2.032.193-2.184.044-.306.178-.428.311-.291.045.046.163.947.282 2.154l.208 2.078-.193 2.002c-.104 1.1-.223 2.062-.252 2.153-.074.169-.223.2-.312.077v-.015zm-1.498-.641a39.71 39.71 0 0 1-.207-1.849l-.178-1.726.192-1.757c.178-1.68.208-1.757.341-1.787.163-.031.148-.107.415 2.016l.193 1.588-.193 1.666c-.104.917-.222 1.727-.252 1.818-.074.183-.237.2-.282.03H9.69zm-1.378-1.284c-.07-.38-.13-.762-.178-1.146L8 30.507l.149-1.1c.074-.61.178-1.146.207-1.19.148-.184.252.107.4 1.19l.163 1.1-.163 1.1c-.089.611-.207 1.13-.252 1.161-.118.076-.163.062-.207-.061l.015-.015z"/>
        </g>
    </g>
</svg>
